<?xml version="1.0" encoding="UTF-8" standalone="no"?>
<!-- Created with Inkscape (http://www.inkscape.org/) -->

<svg
   xmlns:dc="http://purl.org/dc/elements/1.1/"
   xmlns:cc="http://creativecommons.org/ns#"
   xmlns:rdf="http://www.w3.org/1999/02/22-rdf-syntax-ns#"
   xmlns:svg="http://www.w3.org/2000/svg"
   xmlns="http://www.w3.org/2000/svg"
   xmlns:sodipodi="http://sodipodi.sourceforge.net/DTD/sodipodi-0.dtd"
   xmlns:inkscape="http://www.inkscape.org/namespaces/inkscape"
   id="svg2"
   version="1.1"
   inkscape:version="0.48.4 r9939"
   width="1832.3529"
   height="1725.9062"
   sodipodi:docname="dmam.svg">
  <metadata
     id="metadata8">
    <rdf:RDF>
      <cc:Work
         rdf:about="">
        <dc:format>image/svg+xml</dc:format>
        <dc:type
           rdf:resource="http://purl.org/dc/dcmitype/StillImage" />
        <dc:title></dc:title>
      </cc:Work>
    </rdf:RDF>
  </metadata>
  <defs
     id="defs6" />
  <sodipodi:namedview
     pagecolor="#ffffff"
     bordercolor="#666666"
     borderopacity="1"
     objecttolerance="10"
     gridtolerance="10"
     guidetolerance="10"
     inkscape:pageopacity="0"
     inkscape:pageshadow="2"
     inkscape:window-width="1600"
     inkscape:window-height="845"
     id="namedview4"
     showgrid="false"
     inkscape:zoom="0.90076336"
     inkscape:cx="1244.5179"
     inkscape:cy="696.85032"
     inkscape:window-x="-2"
     inkscape:window-y="-3"
     inkscape:window-maximized="1"
     inkscape:current-layer="g2987"
     fit-margin-top="0"
     fit-margin-left="0"
     fit-margin-right="0"
     fit-margin-bottom="0" />
  <g
     id="g2987"
     transform="translate(-180.53227,-122.03125)">
    <path
       style="fill:#ffffff;fill-opacity:1;stroke:#000000;stroke-width:0;stroke-miterlimit:4;stroke-opacity:1;stroke-dasharray:none"
       d="m 1177.7134,819.73347 c -6.7003,4.61819 -4.6037,14.54708 -6.3952,21.51224 -4.492,39.38655 -3.2501,79.18262 -2.7637,118.75074 -0.3173,20.80611 4.0946,41.68805 2.255,62.37765 -4.846,20.6885 -15.4506,43.2934 -36.4621,51.6923 -22.3941,8.0112 -46.7272,-0.1551 -67.5122,-9.2977 -29.6455,-12.3276 -57.6156,-29.428 -88.95231,-37.2254 -6.17803,-1.0591 -14.66273,-3.2387 -17.16835,4.6575 -13.62344,18.571 -22.2026,43.5478 -13.08377,65.873 6.8673,17.5633 21.7787,30.7529 37.29476,40.764 22.24187,12.7526 48.23237,17.4759 73.68707,16.5088 31.2573,1.1884 62.2365,5.5115 93.5334,7.2339 11.9762,-0.2418 24.9971,4.6836 36.3569,-0.6373 17.0539,-12.0797 25.8349,-32.561 27.5773,-52.9329 4.3207,-36.6228 -4.9521,-73.0074 -9.7095,-109.12388 -4.3705,-24.86882 -6.4568,-50.03473 -6.3206,-75.34475 -2.0446,-32.98366 -8.9404,-65.43896 -13.4553,-98.14718 -0.4998,-4.19904 -4.2324,-8.81674 -8.8814,-6.66102 z"
       id="path4057"
       inkscape:connector-curvature="0"
       transform="translate(180.53227,122.03125)" />
    <path
       style="fill:#ffffff;fill-opacity:1;stroke:#000000;stroke-width:0;stroke-miterlimit:4;stroke-opacity:1;stroke-dasharray:none"
       d="m 1618.4507,718.4652 c -5.9778,4.65011 -1.07,12.86232 -0.5204,18.87288 12.4518,49.34069 44.2399,90.42679 67.4081,134.95498 17.7152,31.50319 30.472,67.44543 26.2971,104.25185 -3.0925,20.87153 -9.1101,41.34029 -20.1218,59.35939 -18.889,27.2877 -51.7472,38.6451 -80.5014,52.5537 -16.0399,7.3891 -33.5463,18.2708 -38.6683,36.2598 -4.8895,18.0778 2.3086,36.1447 1.5264,54.329 0.7071,9.1059 -1.4115,18.6978 1.249,27.442 6.6875,4.4906 13.4555,-3.9462 19.914,-5.7151 51.8235,-26.1244 109.595,-41.2564 156.6723,-76.1599 22.5561,-16.9853 39.5023,-42.5355 43.2272,-70.7733 -1.1579,-21.6 -8.0956,-42.5784 -15.4852,-62.77969 -20.5367,-51.53805 -53.1519,-97.03918 -79.2955,-145.72405 -10.9227,-18.92266 -19.1416,-39.00624 -27.2468,-59.15371 -12.0298,-24.61993 -27.7798,-47.90267 -47.9325,-66.60768 -1.8534,-1.40266 -4.2975,-2.15267 -6.5222,-1.11017 z"
       id="path4059"
       inkscape:connector-curvature="0"
       transform="translate(180.53227,122.03125)" />
    <path
       style="fill:#784421;fill-opacity:1"
       d="m 929.77029,236.17989 c -8.5745,4.44676 -13.44528,13.92982 -20.11826,20.68483 -4.00433,5.89906 -9.54301,10.51617 -12.80521,16.7487 -2.79789,6.63719 -9.48963,11.27247 -13.36822,17.53724 -3.12993,4.03184 -6.80731,9.12608 -10.53511,11.91695 -5.96801,12.41696 -15.78251,22.87702 -23.15725,34.69105 -11.04669,15.60072 -21.1933,32.06004 -31.93491,47.63495 -3.35452,4.61674 -5.01299,10.85773 -8.36097,15.81992 -11.67235,20.19425 -20.47832,42.32908 -24.00741,65.25715 -2.754,2.20958 0.0532,5.9627 -2.01219,8.77728 -1.75625,20.11118 -6.56294,41.95362 2.25504,61.09401 7.31359,12.64353 21.68217,21.37402 36.21928,21.78708 4.62944,-3.57716 -0.11967,-10.71926 0.83262,-15.57707 -1.21172,-15.44524 1.90205,-30.66379 9.24048,-44.34113 6.00014,-10.63507 2.91704,-23.49586 4.67133,-35.17476 0.11367,-25.26359 7.60982,-49.65549 16.4097,-73.13241 12.83886,-29.71966 26.19259,-59.59571 41.90889,-87.70339 11.78685,-15.04175 20.9819,-32.58113 31.08567,-49.02519 1.83896,-5.06426 7.6973,-9.74033 6.48663,-15.46872 -0.44957,-1.06257 -1.68223,-1.71532 -2.81011,-1.52649 z"
       id="path3900"
       inkscape:connector-curvature="0"
       transform="translate(-15.700172,-47.100503)" />
    <path
       style="fill:#784421;fill-opacity:1"
       d="m 904.46546,266.28951 c -2.7069,1.55736 -4.383,4.51796 -6.3046,6.91789 -1.31489,2.19963 1.23054,3.87843 3.23816,3.49574 3.03798,0.46648 4.12889,-2.77391 4.80232,-5.07623 0.85953,-1.64656 1.94168,-4.61686 -0.61969,-5.3374 -0.37276,-0.082 -0.74309,-0.0745 -1.11619,0 z"
       id="path3894"
       inkscape:connector-curvature="0"
       transform="translate(-15.700172,-47.100503)" />
    <path
       style="fill:#784421;fill-opacity:1"
       d="m 894.4934,296.61046 c -2.65064,0.28829 -3.03754,4.88088 -0.0368,4.86389 2.89437,0.23042 3.67152,-4.88178 0.44168,-4.87054 l -0.33123,-0.006 -0.0736,0.0123 z"
       id="path3898"
       inkscape:connector-curvature="0"
       transform="translate(-15.700172,-47.100503)" />
    <path
       style="fill:#784421;fill-opacity:1"
       d="m 928.99697,237.25647 c -2.97075,1.50618 -4.67716,4.775 -7.03792,7.06043 -5.67152,6.8505 -11.73524,13.42954 -16.95389,20.63565 -1.23871,1.56288 0.8856,2.98808 -0.0123,4.57512 -0.99784,3.99772 -3.66969,7.19682 -4.83841,11.14308 -1.96259,5.06719 -4.54545,9.96299 -6.21833,15.10525 -0.28947,2.55829 3.59307,3.05027 4.4087,0.77313 10.80197,-17.34494 21.42267,-34.84889 31.45112,-52.63471 1.01886,-1.95515 3.20256,-5.30547 0.32945,-6.60889 -0.3791,-0.0472 -0.74564,-0.16889 -1.12845,-0.0491 z"
       id="path3896"
       inkscape:connector-curvature="0"
       transform="translate(-15.700172,-47.100503)" />
    <path
       style="fill:#784421;fill-opacity:1"
       d="m 1158.7276,1678.7285 c -2.6365,1.7699 -0.095,4.8769 1.2143,6.6603 1.4499,2.3618 6.5714,1.5752 5.446,-1.7172 -1.5326,-1.9748 -3.1124,-4.6972 -5.7649,-5.1516 -0.2984,0.07 -0.5969,0.139 -0.8954,0.2085 z"
       id="path3916"
       inkscape:connector-curvature="0"
       transform="translate(-15.700172,-47.100503)" />
    <path
       style="fill:#784421;fill-opacity:1"
       d="m 1100.5389,1834.614 c -2.5619,0.6668 -5.8618,0.8258 -7.5435,3.14 -1.0591,2.1781 1.5526,3.9809 3.5326,3.2504 2.4568,-0.6825 5.5654,-0.3836 7.433,-2.2814 1.3322,-2.0744 -1.4118,-4.4187 -3.4221,-4.109 z"
       id="path3918"
       inkscape:connector-curvature="0"
       transform="translate(-15.700172,-47.100503)" />
    <path
       style="fill:#784421;fill-opacity:1"
       d="m 1162.346,1684.9104 c -2.8989,1.4825 -0.6224,4.8261 0.2329,6.8938 8.5847,18.7876 15.4412,39.0054 14.302,59.9178 -0.6336,12.8868 -5.808,25.7781 -15.44,34.6073 -12.529,11.9324 -25.3372,23.7822 -39.12,34.2908 -6.1877,4.6714 -12.6992,8.7843 -19.5129,12.4361 -2.3676,1.0157 -1.4457,4.9853 1.1898,4.4648 35.4661,-6.8279 70.5834,-18.0632 101.3029,-37.4351 9.1978,-6.3043 15.6977,-16.5873 17.4174,-27.598 0.5822,-6.6607 0.2365,-13.7796 -3.6318,-19.4984 -12.4205,-20.5239 -28.2213,-38.609 -44.3028,-56.3285 -3.6309,-3.8202 -6.8604,-8.1025 -10.7693,-11.6157 -0.5216,-0.2493 -1.1125,-0.2871 -1.6682,-0.1349 z"
       id="path3914"
       inkscape:connector-curvature="0"
       transform="translate(-15.700172,-47.100503)" />
    <path
       style="fill:#784421;fill-opacity:1"
       d="m 1433.7565,1711.6215 c -14.0112,9.76 -26.7558,21.8793 -41.2678,30.9773 -34.796,23.0018 -75.0519,42.431 -117.5905,40.2817 -6.5145,0.051 -12.7862,-2.7034 -19.1504,-2.706 -4.7984,3.2204 2.0191,8.637 3.3305,12.0384 13.7868,19.6484 29.0267,38.8474 48.6719,52.9158 12.9516,7.502 28.8909,16.7262 44.062,10.0169 25.0457,-10.4137 49.0274,-23.9823 70.357,-40.5906 18.2039,-18.5517 29.0736,-45.9392 24.8747,-71.9875 -2.9238,-10.4267 -5.4926,-21.5286 -11.518,-30.5991 -0.4989,-0.3422 -1.1782,-0.5169 -1.7694,-0.3469 z"
       id="path3884"
       inkscape:connector-curvature="0"
       transform="translate(-15.700172,-47.100503)" />
    <path
       style="fill:#784421;fill-opacity:1"
       d="m 1507.5481,1632.4525 c -7.5074,5.7918 -12.049,14.9883 -18.8779,21.6541 -13.2195,16.2128 -28.8702,30.2366 -42.2508,46.3091 -2.5273,6.1886 5.4233,10.8807 7.3952,16.2035 6.5608,9.1196 11.8446,19.5755 19.2489,27.8217 17.4978,-6.8257 29.4815,-22.2803 42.4293,-35.2132 12.7878,-14.0419 8.259,-34.7205 3.1679,-51.0261 -2.9437,-8.4433 -4.3048,-17.899 -8.9963,-25.5062 -0.6259,-0.3784 -1.4192,-0.5081 -2.1163,-0.2429 z"
       id="path3882"
       inkscape:connector-curvature="0"
       transform="translate(-15.700172,-47.100503)" />
    <path
       style="fill:#784421;fill-opacity:1"
       d="m 1571.9033,1529.6925 c -9.1294,14.4843 -16.3922,30.2713 -25.8035,44.7625 -9.6676,16.475 -21.2759,31.962 -31.6095,47.8829 6.0226,10.4096 12.4359,21.3091 19.0343,31.6216 6.1975,8.8412 15.9807,18.7373 27.8667,15.4756 12.0145,-5.4444 16.6953,-19.1918 25.5339,-28.1706 16.5169,-16.059 22.6358,-41.1893 16.8607,-63.4184 -4.3629,-18.4341 -15.7305,-34.493 -28.9684,-47.6679 -0.8543,-0.5343 -1.9147,-0.9776 -2.9142,-0.4857 z"
       id="path3880"
       inkscape:connector-curvature="0"
       transform="translate(-15.700172,-47.100503)" />
    <path
       style="fill:#784421;fill-opacity:1"
       d="m 1618.5998,1409.4472 c -10.5113,32.0994 -20.8477,64.2842 -35.1785,94.9542 -1.7049,5.1657 -6.9145,12.0382 -0.9367,16.4097 11.0002,11.6071 20.1823,25.9799 34.3458,33.999 13.6064,4.7367 30.7667,1.4311 38.5437,-11.6221 12.7455,-19.2488 29.4826,-39.4631 28.24,-63.9389 -1.2686,-21.1353 -19.9965,-34.7852 -35.0042,-47.008 -9.8964,-7.0963 -18.4777,-16.0124 -27.9286,-23.453 -0.7784,-0.3238 -1.3883,0.4398 -2.0815,0.6591 z"
       id="path3878"
       inkscape:connector-curvature="0"
       transform="translate(-15.700172,-47.100503)" />
    <path
       style="fill:#784421;fill-opacity:1"
       d="m 1637.438,1328.0579 c -6.4621,1.0539 -3.3404,9.6415 -5.0999,13.9465 -2.6242,18.5459 -7.3993,36.4923 -10.3731,54.9187 1.0422,5.2168 7.809,6.8622 10.8266,10.8965 8.701,8.4329 18.7379,15.1782 29.8336,19.962 13.9755,6.5919 25.9345,19.6602 42.1515,20.1053 11.9458,-0.2394 17.7124,-13.6158 19.6502,-23.6793 1.5294,-15.9966 -0.014,-33.1177 -7.6118,-47.4757 -11.3845,-17.3125 -29.4169,-28.0704 -47.8977,-36.4382 -10.2018,-4.4345 -20.3893,-10.8065 -31.4794,-12.2358 z"
       id="path3876"
       inkscape:connector-curvature="0"
       transform="translate(-15.700172,-47.100503)" />
    <path
       style="fill:#784421;fill-opacity:1"
       d="m 1640.4215,1180.0585 c -2.9919,5.648 -0.4388,13.1219 -1.5148,19.3583 -0.7506,37.2578 -0.7274,74.857 -2.2489,111.8923 7.7053,2.9956 16.3881,6.0135 23.7416,10.7039 24.7183,13.5488 47.4112,33.0716 75.7396,38.3786 12.1605,-0.5452 16.0788,-14.7344 15.7175,-24.8741 -0.3639,-18.5109 1.8592,-37.4308 -2.0139,-55.6479 -6.0549,-27.0235 -26.7198,-47.2987 -47.2863,-64.4592 -18.368,-14.5825 -39.2585,-25.6031 -60.4348,-35.4907 l -1.1065,0.09 -0.5935,0.049 z"
       id="path3874"
       inkscape:connector-curvature="0"
       transform="translate(-15.700172,-47.100503)" />
    <path
       style="fill:#784421;fill-opacity:1"
       d="m 1302.6612,622.92868 c -0.2812,2.21205 0.1335,4.59401 -1.2663,6.5049 -0.3426,3.60984 4.7283,3.35987 6.9212,5.01311 2.524,0.52995 6.1213,4.13462 8.0661,0.91935 0.073,-3.41485 -2.2618,-6.34487 -2.5499,-9.74867 -1.4498,-2.46663 -5.0178,-1.30657 -7.1444,-3.00286 -1.3255,-0.71969 -3.0468,-1.17301 -4.0267,0.31417 z"
       id="path3872"
       inkscape:connector-curvature="0"
       transform="translate(-15.700172,-47.100503)" />
    <path
       style="fill:#784421;fill-opacity:1"
       d="m 1323.5318,557.04645 c -13.744,3.06566 -5.86,24.45197 -9.4201,34.24599 3.6311,15.4514 -11.1175,42.16851 8.5073,48.18508 83.3787,38.76359 137.5494,117.37131 192.363,188.24471 59.242,78.26754 108.6783,168.34389 118.107,267.81907 3.0314,19.9313 2.7464,40.9197 7.0955,60.2703 35.4759,12.5914 68.8471,29.8926 102.8361,44.9417 12.0471,0.038 0.8901,-17.9415 2.0336,-23.9799 -20.7384,-121.6637 -80.2042,-231.30179 -133.4907,-341.09175 -34.0833,-71.39492 -79.0944,-137.67788 -138.7276,-190.03056 -41.3627,-38.98323 -89.9112,-74.62599 -145.6735,-88.60464 -1.2036,-0.13072 -2.4285,-0.16758 -3.6306,0 z"
       id="path3868"
       inkscape:connector-curvature="0"
       transform="translate(-15.700172,-47.100503)" />
    <path
       style="fill:#784421;fill-opacity:1"
       d="m 1185.3703,541.44441 c -37.0871,2.78402 -79.0276,7.21919 -107.2518,33.65723 -10.9706,17.62906 -24.6879,35.93343 -29.8303,55.7356 14.6516,5.79079 31.4657,-7.21607 46.9509,-7.04256 68.4949,-14.34385 140.7689,-16.67987 207.7843,5.86504 6.1078,-6.56296 -9.1746,-13.90037 -10.9901,-20.60647 -17.1373,-33.18092 -45.4546,-66.60318 -85.9584,-67.11821 -6.8908,-0.44026 -13.8,-0.7169 -20.7046,-0.49063 z"
       id="path3870"
       inkscape:connector-curvature="0"
       transform="translate(-15.700172,-47.100503)" />
    <path
       style="fill:#784421;fill-opacity:1"
       d="m 900.83884,274.50187 c -11.55778,7.88173 -18.45069,21.57654 -27.46919,32.21425 -29.92107,41.94438 -60.90225,84.06798 -80.4204,132.04876 -6.39754,27.54594 -13.42536,56.59836 -10.00885,85.02622 1.94219,19.28454 20.50892,30.86893 38.17103,33.51004 5.15282,-4.04516 -1.55776,-12.01119 -0.53969,-17.56456 -1.21288,-16.61469 4.19303,-32.64881 12.60919,-46.708 2.62212,-20.89939 0.48463,-42.41425 5.9267,-63.02121 11.44589,-54.73918 44.08663,-101.31697 64.38062,-152.7089 0.16663,-1.40072 -0.90293,-3.19095 -2.64941,-2.7966 z"
       id="path3892"
       inkscape:connector-curvature="0"
       transform="translate(-15.700172,-47.100503)" />
    <path
       style="fill:#784421;fill-opacity:1"
       d="m 1120.2505,451.80297 c -22.1851,-0.0101 -39.0224,16.22127 -55.335,29.24603 -31.9511,27.34516 -63.2002,57.21743 -84.57557,93.9161 -7.94531,14.3256 -14.75945,34.04973 -4.27267,48.74068 12.72375,16.22005 35.39134,18.22915 54.50234,18.31779 6.1478,-1.11382 4.1678,-9.51282 5.308,-13.98119 2.3628,-29.84072 15.0473,-58.18857 31.6399,-82.70763 22.3818,-29.2496 56.8908,-50.78325 93.9828,-54.71054 18.4024,-1.40929 36.6778,3.33315 53.6697,10.06091 4.613,1.17977 4.2254,-4.77398 0.7979,-6.2794 -27.0671,-21.97182 -59.4689,-43.34439 -95.7174,-42.60275 z"
       id="path3888"
       inkscape:connector-curvature="0"
       transform="translate(-15.700172,-47.100503)" />
    <path
       style="fill:#a05a2c;fill-opacity:1;stroke:#000000;stroke-width:0;stroke-miterlimit:4;stroke-opacity:1;stroke-dasharray:none"
       d="m 624.05718,1376.092 c -5.55358,1.3291 -8.73798,6.7763 -12.92749,10.2561 -2.78038,3.4045 -8.19431,6.3099 -6.83006,11.2708 1.00382,2.5 3.30647,3.7146 5.94982,3.8335 2.30064,3.5667 7.66165,4.5969 10.06091,0.5031 3.47212,-6.4451 7.24723,-12.8908 9.55056,-19.8386 0.71588,-3.5044 -2.64091,-6.4351 -5.80374,-6.0249 z"
       id="path4002"
       inkscape:connector-curvature="0"
       transform="translate(-15.700172,-47.100503)" />
    <g
       id="g4004">
      <path
         transform="translate(-15.700172,-47.100503)"
         inkscape:connector-curvature="0"
         id="path4000"
         d="m 909.57054,243.50302 c -46.67446,22.19487 -89.46976,53.28762 -129.67534,85.81747 -88.88977,70.47341 -133.49897,177.70742 -194.23874,269.88945 -9.25977,12.845 -21.78693,22.84871 -35.61976,30.32095 1.59276,-32.37415 12.32015,-65.18273 8.24259,-97.34104 -11.36397,-8.23103 -20.22988,11.44051 -26.98466,18.25145 -38.40916,53.79423 -60.28737,117.32685 -83.11276,178.78565 -3.8554,12.4936 12.03492,11.09308 19.2327,7.94821 90.80387,-2.75063 183.07774,20.88145 261.01529,67.90323 28.9323,17.46791 54.35875,46.95283 57.59999,81.44462 -1.02177,14.25949 -18.38499,6.91966 -22.47087,-1.76627 -22.38335,-34.49443 -51.25555,-67.56482 -91.71953,-80.94265 -51.75425,-18.46908 -105.76232,-31.12788 -160.17003,-38.673 -80.13438,0.58386 -145.11724,59.23328 -188.722,121.31108 -44.55393,59.55877 -50.39459,136.78793 -64.51885,207.61593 -10.64059,78.3865 -28.78495,156.6002 -26.22213,236.0828 6.42629,115.4362 76.65185,231.5367 187.98986,272.2665 105.64673,41.6934 232.83803,22.5671 320.57637,-50.0062 52.95098,-36.6041 98.65028,-84.7825 126.43791,-143.428 14.22828,-31.538 30.24983,-64.8034 31.27172,-99.8313 -1.2075,-20.2395 -18.42453,-43.4991 -40.91856,-34.4422 -36.61298,12.0996 -61.96684,46.2674 -77.81396,79.8746 -5.10058,30.8722 -31.63728,53.3104 -47.59113,79.2858 -29.47088,39.4664 -60.86965,91.4138 -115.19998,95.3785 -12.62014,-0.8285 -36.04209,0.4802 -33.85349,-17.6627 -4.29779,-39.4647 17.74169,-73.9015 32.3816,-108.5274 -1.98946,-15.8216 -18.18902,1.0772 -23.36622,6.488 -15.90254,12.1665 -27.5086,34.2826 -47.97142,38.65 -17.41852,-3.7762 -8.89114,-27.5813 -8.34071,-39.6429 7.00005,-69.4527 54.12133,-123.2887 98.81293,-173.1925 7.54352,-6.974 21.60352,-26.7505 3.92504,-30.5172 -59.95056,-4.4857 -110.98832,35.8662 -167.50116,48.3761 7.06992,-32.4287 12.35532,-67.8244 5.49506,-100.5792 -9.32294,-13.435 -21.22587,5.5596 -23.64838,14.6208 -16.58721,36.0088 -58.71978,68.7832 -99.49981,55.0487 -30.08751,-11.6177 -25.64477,-48.1259 -27.2588,-74.2789 -3.3862,-90.587 3.56593,-188.51612 58.36475,-263.96154 36.38822,-44.658 91.62242,-74.2553 147.77783,-83.79965 38.11633,-4.36703 82.41734,2.65437 108.23303,32.97035 -0.24404,9.57792 -9.24834,14.29306 -17.66269,10.892 -42.19128,7.77918 -81.21276,30.77345 -113.67215,57.87427 -45.66375,36.28946 -44.88232,114.81997 1.71033,150.15297 28.9798,23.8612 62.92951,41.0005 93.61225,62.31 41.42857,15.1679 95.6047,-0.4706 126.97511,37.7785 25.01504,33.0142 41.77893,73.0411 48.37614,113.7281 -3.51257,11.5641 10.86062,18.6268 17.07393,7.752 19.5008,-26.656 57.81508,-49.3496 89.68721,-31.2041 24.19373,14.327 36.80772,40.8867 43.27358,67.0201 10.55432,5.916 0.0193,18.2748 1.17752,28.064 -3.26529,44.2422 -32.39228,80.5659 -52.06,119.1747 -37.74757,65.4062 -97.06167,115.5549 -161.85479,152.5364 -41.35003,31.7306 -95.03509,34.8379 -143.95091,46.2173 -10.78717,10.8544 10.88471,21.2694 16.53558,29.2126 58.092,54.8589 128.10108,97.0157 205.63398,117.3848 99.09471,30.4796 205.72389,48.8792 308.59419,27.0857 29.7374,-7.7451 52.7287,-32.519 69.9639,-56.7168 15.3465,-34.1462 -3.4115,-71.1353 -26.2978,-96.7523 -17.0592,-22.045 -46.3417,-48.2671 -32.1853,-78.9915 21.5644,-41.7423 68.8226,-60.9902 99.7942,-94.5935 24.3535,-25.0513 30.6748,-61.1337 49.4636,-89.9576 7.1972,-18.1941 22.6924,-34.9825 25.1122,-54.1895 -13.5094,-11.1877 -34.7684,-6.4787 -51.0088,-12.6068 -16.5082,-0.475 -33.6145,-11.2181 -49.6686,-7.1166 -6.416,10.1795 -8.2287,23.5938 -19.6252,31.0079 -15.3625,17.8159 -42.7583,18.9003 -62.8006,19.3308 11.8178,-22.451 28.6279,-42.3822 52.5955,-52.0068 6.4264,-15.3942 -24.4297,-12.2677 -34.4422,-17.859 -14.8798,-9.1592 -9.7764,-32.1736 -10.9901,-47.1005 0.4499,-46.8956 20.4636,-99.8276 67.9032,-116.8681 6.2805,-15.5418 -21.7099,-31.9707 -11.4808,-49.2593 15.127,5.1154 30.0339,17.3892 38.4655,31.3023 0.3513,31.2437 18.9094,61.4706 49.3574,71.3376 29.7241,12.8132 74.0734,4.2513 81.5427,-31.6947 1.601,-34.5937 -8.6094,-68.6568 -6.2801,-103.6211 2.3655,-44.1628 -4.3978,-93.17211 21.5878,-131.39081 8.8955,-10.0698 24.3218,-20.58904 37.5822,-18.15331 38.3474,122.61202 42.6572,251.93692 49.3574,379.45342 1.7605,27.8946 -16.2423,63.8762 -48.5723,60.74 -27.1699,0.8459 -54.6411,-6.6409 -81.2484,-5.0044 -3.1572,55.4244 -31.8213,107.4459 -64.9595,150.9179 -28.1286,36.127 -63.2241,65.9156 -98.8129,93.8085 -11.171,12.187 9.7024,25.1545 13.5433,36.3502 33.5758,47.6127 66.2464,95.7646 101.3623,141.9448 26.804,10.7839 57.3858,-1.6372 83.1128,-10.892 30.1607,-14.022 59.922,-31.2007 83.6034,-54.46 -0.8203,-18.4701 -20.3516,-30.4718 -30.8112,-44.671 -23.3313,-28.1563 -57.4916,-47.8053 -74.9687,-80.3415 -1.6558,-6.5871 -10.7985,-23.9331 2.8456,-15.504 46.079,13.2639 78.6666,50.3754 103.523,89.1966 8.3244,7.526 13.0745,28.1766 26.5922,25.4147 18.0262,-16.3272 36.488,-34.3281 48.6705,-55.5394 -1.5238,-11.362 -14.2589,-19.6278 -11.5789,-32.0872 8.2929,-4.7707 17.0914,-6.9428 20.3121,4.4157 11.1071,11.2119 20.5912,-11.068 25.8267,-18.5444 9.9368,-17.3201 23.1099,-33.8573 29.3202,-52.597 -28.2231,-32.8547 -65.9281,-54.146 -105.4855,-70.1601 -8.8993,-5.6469 -26.5823,-12.5113 -27.181,-22.7653 21.2002,-12.1858 47.741,-1.2863 69.6695,3.8269 31.1151,10.8345 48.5606,42.1627 75.0135,58.8613 13.0644,-7.748 13.7692,-29.1277 21.4943,-41.9697 5.1803,-17.0001 16.4708,-35.0891 10.9403,-52.9038 13.7793,-23.1481 21.0049,-51.161 21.3969,-77.5456 -11.766,-11.4074 -28.3474,-18.3896 -41.4147,-28.5287 14.9712,-2.6808 36.0602,6.5852 46.7718,-3.9423 -1.2638,-39.0024 1.0273,-79.2715 -3.1139,-117.6029 -27.1793,-20.436 -59.4515,-34.2641 -92.9171,-40.2646 -6.5362,-1.8431 -17.0274,-5.2779 -11.1864,-14.0321 3.6406,-11.9538 21.7959,-2.7304 31.2041,-3.14 23.1198,4.7317 44.9716,20.5098 68.8845,18.0552 9.7604,-15.5686 0.7105,-36.8542 0.1072,-54.0303 -7.5501,-61.886 -28.5567,-121.16815 -60.3872,-174.58546 -49.555,-85.44816 -112.1952,-163.08979 -182.736,-232.24743 -26.1151,-22.95496 -57.1162,-41.38338 -89.7295,-52.72854 -37.9036,-18.68414 -82.6651,-17.43814 -124.2275,-18.34957 -39.251,1.08385 -78.6945,8.45514 -116.0831,19.72334 -11.1913,3.70119 -20.785,26.46376 -32.676,12.85451 -13.247,-10.27322 -35.95566,-4.27327 -46.31551,-20.7046 -18.18152,-24.05962 4.12434,-53.79131 19.02291,-73.30893 28.676,-32.83321 59.0188,-66.41465 96.4714,-88.7953 26.4751,-11.40032 57.9946,-6.31575 80.954,10.40137 20.0837,9.6985 39.3703,22.43194 60.9363,28.35842 12.8729,-7.48354 -6.0341,-21.80364 -8.8089,-31.04357 -31.5948,-49.54351 -64.769,-109.21724 -126.1144,-124.87872 -34.2411,-3.65406 -67.3293,12.5837 -98.9723,23.65819 -60.6709,24.21492 -116.88548,63.07567 -153.24528,118.30094 -6.61033,8.23636 -13.94564,17.1962 -24.59601,17.59383 -10.28963,13.9022 -4.8965,33.74576 -6.57444,49.94615 -26.40665,-1.21952 -41.64969,-30.24727 -36.40476,-54.2637 2.91326,-53.88264 28.18516,-102.63306 59.20398,-145.76357 21.96918,-36.04664 50.32622,-68.8877 72.9718,-104.45785 0.1196,-4.25616 -2.75108,-7.18905 -6.96695,-5.98569 z m 230.59626,603.57332 c 10.6178,-1.40639 34.9063,1.02578 27.7696,16.9758 -25.4797,12.80374 -57.7412,9.69753 -82.8403,25.33687 -19.7821,6.96456 3.6074,39.38384 -19.407,44.82326 -35.338,18.98976 -78.39924,-8.07083 -112.9431,12.0695 -15.06801,8.38175 -14.64973,35.48354 -36.11038,28.55468 -17.14292,3.44515 -8.95434,-7.28585 -1.76627,-15.50392 51.24343,-72.31516 139.01925,-108.58374 225.29745,-112.25619 z"
         style="fill:#a05a2c;fill-opacity:1;stroke:#000000;stroke-width:0;stroke-miterlimit:4;stroke-opacity:1;stroke-dasharray:none" />
    </g>
    <path
       style="fill:#784421;fill-opacity:1"
       d="m 549.31727,821.98678 c -66.30466,5.61909 -127.80261,47.31478 -159.84734,105.09299 -33.82891,75.69203 -49.79854,162.01323 -35.52162,244.33383 1.1187,18.2472 23.22459,33.6117 39.05416,22.2746 31.11943,-25.1729 40.34642,-71.4265 73.69266,-93.8085 18.64115,-4.2107 23.84259,22.2072 28.16218,35.1292 7.3016,21.2906 2.8414,56.6527 29.24156,64.9594 27.02959,7.6228 46.88277,-20.3936 73.69266,-15.8964 28.90092,0.573 67.32041,-5.3577 86.15467,21.6858 12.95289,20.4407 -10.96927,35.6477 -24.18262,46.7719 -37.73577,30.838 -71.75027,70.4604 -85.62042,117.8837 7.09638,7.5998 17.12774,-8.4525 25.02214,-10.107 25.3237,-11.4964 52.20716,-23.4958 77.32332,-32.5779 -3.94429,9.6447 -0.55588,18.7554 2.64941,27.3772 -9.61498,30.2949 -43.29408,47.0306 -49.55366,79.6783 -5.16553,19.4146 -16.36229,45.4987 -2.55128,63.3895 15.99822,1.8249 25.91956,-17.6313 37.4476,-25.8688 47.61557,-49.0728 83.98099,-108.1916 116.6103,-167.9302 9.96851,-38.0018 -5.11367,-78.1706 -20.50835,-112.7468 -16.62892,-35.2137 -46.30751,-72.5148 -89.2947,-70.847 -28.79365,-2.2946 -62.51623,1.6312 -83.70152,-21.6859 -36.76393,-26.5438 -90.03793,-41.3381 -103.91548,-89.1965 -13.82592,-35.91913 -4.47958,-78.9111 24.72776,-104.01365 31.83158,-31.56861 76.01948,-46.34059 116.47562,-63.19318 -20.87761,-13.96663 -49.54087,-21.74465 -75.55705,-20.70459 z"
       id="path3864"
       inkscape:connector-curvature="0"
       transform="translate(-15.700172,-47.100503)" />
    <path
       style="fill:#784421;fill-opacity:1"
       d="m 1119.4111,450.19718 c -21.5646,3.70989 -40.5651,16.09686 -55.8111,31.42611 -23.5797,21.17035 -47.6545,42.6655 -67.41774,67.37897 -11.12385,19.50925 -30.34503,40.33026 -25.39512,64.45922 5.73281,17.69756 24.28792,27.87717 41.77016,28.51748 6.8622,1.58593 16.0042,1.71681 21.9952,-1.59587 6.7553,-52.3971 29.4041,-108.40205 79.115,-132.67109 29.1811,-18.38551 65.7696,-18.91143 97.4713,-7.76535 5.7217,3.47288 10.4207,-2.9859 4.3019,-6.31409 -17.7403,-15.31714 -38.9952,-27.65499 -59.1859,-37.74577 -3.822,2.45807 -3.6095,-4.81747 -8.2569,-2.28972 -9.559,-0.27484 -18.8387,-4.0854 -28.5868,-3.39989 z"
       id="path3902"
       inkscape:connector-curvature="0"
       transform="translate(-15.700172,-47.100503)" />
    <path
       style="fill:#784421;fill-opacity:1"
       d="m 1181.9275,542.61879 c -35.4126,-0.42546 -72.7315,7.29788 -101.1642,29.21133 -11.9639,16.97241 -26.2415,34.54416 -31.7786,54.74523 0.7985,12.15914 17.3214,4.62132 24.285,3.33051 17.1167,-4.35275 35.2768,-7.78351 52.3861,-8.46504 9.7675,-6.87976 24.3331,-3.89837 35.9393,-5.86297 46.854,-2.01833 95.8226,-1.26453 139.6062,16.06265 9.562,4.98182 20.7238,7.36752 28.9338,14.57098 10.0344,2.64483 19.9219,9.06322 26.2972,16.30561 11.0287,1.84965 19.7437,13.11464 28.9338,19.15042 26.9016,22.87783 53.1551,49.33301 73.4793,77.43433 1.2939,5.1495 8.8359,7.66374 11.5018,13.13792 8.575,8.76821 12.1231,20.07413 21.5257,27.86896 20.0514,25.33247 40.9163,52.34081 57.3125,79.51589 23.3659,33.17979 41.5258,71.08449 57.0078,108.60169 1.8492,11.43159 9.0135,20.562 10.885,32.5879 4.4017,15.567 8.3749,32.0183 9.4722,47.678 5.516,9.8113 2.2719,23.2046 6.7304,33.9296 1.7774,17.0645 -1.1265,36.3573 7.3549,51.5534 31.0395,18.2403 65.9901,29.902 98.3193,45.7252 9.4389,3.9281 11.7724,-8.0385 8.3957,-14.4322 -14.489,-87.6289 -47.807,-170.1934 -86.4803,-249.55614 -44.748,-91.96899 -85.3765,-189.17845 -158.6218,-262.66722 -48.0468,-48.03803 -101.8315,-94.83973 -168.0891,-114.67552 -8.636,-3.61597 -20.6866,0.38943 -19.1504,11.37923 -2.3221,17.43051 -1.3524,36.01992 -3.8856,52.87182 -14.5625,-1.13997 -18.3723,-19.80433 -27.2127,-28.88689 -17.7995,-26.34613 -43.96,-54.03526 -78.6697,-51.11469 -7.7702,-0.1372 -15.543,-0.064 -23.3136,0 z"
       id="path3904"
       inkscape:connector-curvature="0"
       transform="translate(-15.700172,-47.100503)" />
    <path
       style="fill:#3c3c3c;fill-opacity:1"
       d="m 1302.3503,1834.6143 c -45.5865,-37.0823 -81.4247,-112.0342 -143.8387,-46.3236 -155.7154,63.0444 -329.63194,15.8488 -477.23407,-46.9617 -56.63023,-22.526 -162.04248,-155.6536 -156.59604,-125.1487 69.97327,57.1545 139.57792,116.9327 229.8073,139.4307 140.54637,47.2003 303.68041,72.4116 438.86321,-4.7956 53.8779,-34.5186 -56.2826,-111.1263 -74.9039,-153.178 -66.9963,-70.0067 91.8635,-96.8113 104.3937,-167.6672 22.2835,-35.0448 84.7799,-174.7847 55.6389,-62.7423 -23.6943,80.3599 -90.1231,130.3261 -149.5549,183.7665 12.8499,94.174 121.5752,179.7274 168.7701,271.8095 77.7825,-22.9833 191.3102,-85.5488 113.5707,-176.664 -20.1394,-44.3862 -111.5817,-99.4094 -103.2126,-108.712 72.0095,25.4516 121.7577,98.5885 142.1621,164.699 59.4247,-36.9348 80.7439,-71.3925 33.85,-131.8052 34.7986,1.5782 36.2782,115.3149 77.554,34.4627 85.0892,-74.9866 -35.4006,-158.0036 -102.9546,-192.8766 -93.912,-38.6388 75.6912,1.087 92.4514,43.7014 34.3962,44.4922 65.6871,100.2141 101.4076,25.121 64.5345,-44.931 -74.9139,-169.8234 -46.1184,-120.4609 50.9139,16.0943 105.6368,94.239 107.813,-1.8577 11.1703,-58.7936 -181.9144,-108.5945 -65.4419,-80.8904 49.9316,16.6052 91.7325,86.6503 87.8721,-4.4201 7.092,-99.2978 -98.8166,-133.7275 -165.6599,-179.5346 -44.6101,-24.3625 -70.6413,-4.0793 -6.963,2.0862 60.9622,4.5587 199.4059,78.7025 169.5817,81.5896 -4.609,-155.252 -93.6029,-289.69561 -155.1211,-427.3636 -56.718,-101.94301 -142.4182,-196.36027 -252.9828,-239.0099 -58.3568,-34.59427 9.1619,115.81786 -52.2192,53.15427 -20.5244,-97.50507 -155.7127,-80.6555 -214.5692,-37.00515 -12.6776,29.66864 -55.1227,122.01191 -37.2325,35.1229 21.1457,-93.04195 134.6086,-165.73685 212.6833,-83.35821 33.9379,32.71366 55.1043,56.93275 24.952,-1.88172 -52.0251,-70.20719 -95.4176,-195.22515 -198.9202,-188.8136 -84.4944,23.95258 -172.03257,65.34133 -227.18249,136.24611 -36.32156,80.03889 -7.00282,-74.04038 11.59224,-102.35357 8.51396,-50.68774 78.22161,-106.75768 70.4384,-145.472 -119.58091,56.12137 -226.46707,144.82912 -286.82818,264.37946 -34.75564,34.32316 -110.99451,139.99627 -83.62383,134.13615 -6.73191,-36.08352 36.67152,-165.21909 -28.77462,-83.4283 -43.6999,31.98084 -108.11994,234.601 -96.90365,185.78776 10.81878,-93.91353 67.17091,-183.47878 139.25261,-242.46709 50.99177,-23.73112 -23.79213,125.88597 30.2428,50.92159 70.6558,-147.49592 190.31129,-273.53009 345.11946,-332.09059 83.52146,-35.23248 -32.01099,81.51612 -45.8414,114.79226 -26.90832,36.61494 -70.74408,156.80626 5.7001,80.42605 78.80718,-57.6 216.64816,-123.95575 284.77186,-16.7264 62.9685,66.43068 86.9135,169.6667 188.8364,184.61669 127.5367,62.50812 214.6117,185.73761 268.7189,313.95802 51.6895,106.71146 106.8301,216.14027 116.4305,336.07597 60.0901,83.779 162.6582,-89.1428 100.4521,-152.6387 -16.7611,-57.43971 -120.2017,-159.11429 -54.1832,-202.93884 82.6757,70.29845 119.2465,193.10834 181.2762,284.59754 68.9926,97.4588 -27.8758,197.6099 -123.3064,217.5221 -92.2705,12.8708 -145.3229,82.8955 -181.1669,161.6751 -70.6766,98.9899 -137.0314,203.4465 -230.8122,282.6305 -39.3629,37.5443 -89.2376,64.1339 -142.0568,76.8772 z m 135.4952,-78.0623 c -3.9812,-5.399 -2.2486,7.8446 0,0 z m 8.7084,-7.6391 c 0,-7.8953 -5.4061,3.9544 0,0 z m 1.0369,-27.4072 c -5.0196,-7.1962 1.41,10.0182 0,0 z m 243.6259,-289.689 c -6.2432,-2.5106 2.0437,6.9473 0,0 z M 1270,1363 c -3.4318,-4.1598 -2.5865,4.0781 0,0 z m 481,-17.9093 c 76.3024,-53.5086 214.7588,-60.8954 231.7059,-169.5222 -10.342,-95.5623 -82.7938,-169.5247 -119.0308,-256.20583 -9.8213,-39.09796 -95.2103,-151.6957 -69.0774,-51.2167 22.7992,92.18173 139.5156,182.97803 73.616,281.18343 -47.8999,60.563 -138.9651,49.1322 -119.8465,143.2157 -0.2646,15.926 -13.6184,41.7978 2.6328,52.5456 z M 1059,508.41667 c -3.599,-4.82278 -3.0392,5.8828 0,0 z m 8.393,-11.99846 c 1.9439,-7.71188 -4.7505,5.96723 0,0 z m 23.2187,-2.56203 c 32.4665,-12.33156 173.4668,-5.14981 72.275,-37.24555 -19.1771,-15.60253 -81.1429,18.87853 -72.275,37.24555 z M 1079,481.29179 c -11.1753,-0.0948 -5.3525,16.93721 0,0 z m 5.5,-6.30549 c -4.2032,-9.31569 -3.6923,10.21615 0,0 z M 502.0338,1600.3736 c -161.04338,-6.4022 -305.74615,-144.9426 -307.2412,-308.6308 -13.86967,-114.8066 23.94788,-227.6314 38.14651,-340.7076 20.24323,-94.47502 74.94437,-181.09861 161.11846,-227.89474 77.78925,-63.2311 171.71036,-5.50779 255.50767,9.48074 48.4869,15.71746 118.32859,65.67644 113.32509,112.64969 C 725.4742,760.4911 639.92515,739.13312 557.80169,719.25319 449.94972,679.77444 347.56703,761.06714 290.43856,846.00963 c -57.98721,115.9598 -60.20613,250.13947 -81.18249,376.12877 -14.91178,139.6593 56.47605,293.1284 194.03871,342.1885 106.56142,40.4639 234.25181,23.8823 322.63461,-50.0572 87.1194,-52.4868 147.41341,-146.8947 166.91818,-245.9462 -13.35793,-110.1083 -133.52144,-15.0713 -137.78546,52.9168 -47.66689,52.4536 -94.64225,176.4912 -178.63107,151.1702 -8.64004,-51.6444 53.47627,-133.705 43.04332,-161.806 -35.67058,12.8528 -117.08061,150.9056 -91.55602,48.6971 10.37359,-72.8185 57.98449,-130.4757 111.78857,-177.0458 32.25491,-57.6049 -112.31646,-28.3822 -133.97983,0.5943 -92.6953,65.2066 18.51953,-106.4902 -58.95993,-103.5362 -11.95907,75.633 -127.77442,146.2866 -132.13521,27.8293 1.38499,-92.2238 6.8885,-194.46731 62.0561,-272.12118 61.13041,-62.84266 169.92263,-109.01517 247.00597,-45.30857 14.17259,35.98796 -105.86415,-63.04822 -136.60916,-6.45675 -92.87815,28.40669 -146.22926,120.20724 -148.43006,213.56322 -16.72159,47.27228 -19.62804,221.22398 59.06408,136.11398 16.57316,-53.7894 69.14693,-127.6332 86.02489,-30.2464 -4.67586,120.2261 120.97458,-15.4736 185.36666,52.0416 -4.65389,58.462 -119.3152,104.6466 -119.45283,188.1717 8.91066,-36.9835 175.7624,-76.8099 87.5773,-1.4825 -36.64116,32.1734 -59.78094,174.9283 12.87499,85.9952 54.67506,-59.902 96.49885,-129.1513 136.52402,-198.2695 79.23555,-94.6749 159.75702,43.6053 102.16111,114.6167 -35.30597,85.8522 -96.21111,159.3624 -178.6887,203.773 -59.98306,46.9373 -134.80898,51.905 -208.07251,52.8399 z m 401.80497,-329.7569 c -7.06003,-6.0337 -6.30392,9.6124 0,0 z m -1.36978,-7.5665 c -2.4189,-7.0596 -5.8535,4.4016 0,0 z M 1105.5,1333.5063 c 15.5022,-41.6782 93.8089,-53.2489 31.7749,-6.7648 -9.788,4.9474 -20.8629,7.0245 -31.7749,6.7648 z m 26.2708,-14.3188 c -3.4819,-4.8125 -3.1189,5.8013 0,0 z m 27.7164,-25.1668 c 0.3771,-13.1512 -8.9472,5.2246 0,0 z m 196.0128,14.0049 c -82.7534,-7.0754 -176.7231,-18.1672 -248.042,-48.745 -13.5287,-60.1652 23.3926,-169.3045 80.0471,-137.5779 -19.6827,-30.0675 -49.2122,-88.5998 -3.1125,-28.5786 2.1585,72.4754 141.8544,137.0606 142.6176,33.4714 10.5835,-75.2139 -32.6461,-214.8064 45.4964,-244.20457 31.5864,107.854 39.2247,223.84837 43.9992,336.60557 3.4781,57.0814 21.1158,96.0964 -61.0058,89.0291 z m 12,-14.5801 c 77.5885,-31.572 8.4091,-146.0522 24.837,-211.2333 -6.9583,-52.7186 -21.8417,-195.95097 -35.9068,-182.04948 -25.2101,88.30664 -6.4714,183.12328 -17.4274,270.45508 -66.3369,83.2042 -159.7315,-81.9868 -207.5466,-6.3849 -62.6382,99.1897 74.864,121.5727 144.5656,121.7822 30.4564,2.8194 60.8162,7.5985 91.4782,7.4304 z M 1406,1216 c -2.4132,-3.9271 -2.4132,3.9271 0,0 z M 905.37576,920.91381 c 34.74412,-68.11019 123.70294,-101.40882 197.00584,-113.65127 39.477,-8.40827 66.5462,19.79437 6.4576,11.21897 -67.5196,0.93391 -56.4338,126.89838 -136.05212,55.67046 -28.32567,3.48191 -39.39342,41.54065 -67.41132,46.76184 z M 1048,854 c -2.4132,-3.92708 -2.4132,3.92708 0,0 z m 0.1988,-14.46306 c -11.08,-10.81739 -1.2242,14.07874 0,0 z"
       id="path2995"
       inkscape:connector-curvature="0" />
    <path
       style="fill:#000000;fill-opacity:1;stroke:#000000;stroke-width:22.29999924;stroke-miterlimit:4;stroke-opacity:1;stroke-dasharray:none"
       d="m 1302.3503,1834.6143 c -43.9728,-27.2198 -76.176,-115.7116 -133.673,-50.7979 -153.6128,68.8696 -328.53412,23.0939 -476.46434,-37.6167 -60.60777,-22.9015 -185.8688,-177.4854 -178.38638,-144.1168 69.77502,57.3452 150.57556,130.9034 240.66221,153.5278 140.54637,47.2003 303.68041,72.4116 438.86321,-4.7956 54.1885,-28.7158 -51.5935,-107.8204 -68.7056,-145.9863 -81.8966,-74.2801 93.2986,-109.0336 105.9455,-186.5605 18.7607,-32.7107 75.7486,-162.7137 48.9885,-55.6168 -31.2945,81.6572 -93.7639,152.3034 -169.5803,196.4452 66.1182,85.3277 125.4611,175.5763 187.6958,263.7069 79.0258,-22.8568 190.9905,-86.6527 113.6835,-178.1945 -23.6497,-43.2049 -97.5929,-83.6964 -96.2997,-106.111 81.9334,23.1333 114.0862,141.4399 156.7101,171.1916 89.9228,-2.4907 -6.0165,-214.2996 16.1738,-143.8532 35.8363,11.059 37.71,121.5942 68.7865,42.4592 83.9815,-52.6632 -7.1425,-153.0332 -67.0265,-180.5501 -40.6609,-14.4969 -95.9387,-42.4277 -17.0784,-24.8828 76.3358,4.8987 129.2669,189.7564 183.8894,70.7189 42.2351,-54.1848 -25.5233,-92.7822 -57.2721,-117.0109 44.3889,28.7863 130.9892,85.2064 113.4837,-10.8769 -11.2278,-48.6089 -182.703,-100.3595 -67.8626,-72.2144 31.7355,28.2639 106.2847,81.0142 88.7165,-3.7817 16.7626,-93.7249 -99.4652,-131.0442 -162.019,-174.356 -45.4249,-24.0748 -73.7071,-8.0129 -7.8079,0.039 60.4712,5.0935 200.8771,75.8614 170.1902,80.6559 -5.8943,-155.5249 -93.7813,-290.72853 -156.3803,-428.46624 -57.5443,-101.88712 -143.4132,-196.83629 -254.9297,-238.62667 -54.9604,-30.68445 9.7755,114.36129 -48.996,54.38128 -19.969,-96.80968 -173.5279,-84.29349 -218.5405,-29.00068 -12.9181,43.64627 -55.46814,98.85556 -29.3233,17.22418 22.6355,-82.291 124.8538,-148.73624 197.5757,-82.04008 23.1062,22.88992 73.0134,87.99787 42.4653,15.49161 -55.1096,-69.63421 -92.5422,-188.74512 -191.2542,-198.15284 -92.83779,17.66003 -197.35763,67.17005 -246.17609,149.85356 -29.90357,49.23802 24.37633,-126.07153 11.53227,-102.55236 8.88791,-56.83843 82.30222,-116.32022 77.16961,-160.25697 -110.4556,54.6588 -214.98521,131.16885 -275.05201,241.88092 -33.74205,50.78764 -74.10345,143.08459 -98.13064,150.66175 5.61445,-37.44479 24.13155,-155.37071 -30.51172,-72.18406 -42.63691,32.44432 -112.97085,261.64949 -102.87842,216.73779 10.55871,-93.46362 75.67341,-218.89327 148.7934,-275.83553 48.20507,-16.4726 -24.6776,127.18397 30.01114,49.49351 74.9164,-159.81912 211.37212,-291.56441 381.56205,-344.46342 -32.29673,68.73748 -93.71682,121.08372 -115.09973,196.46643 -28.96932,96.54993 81.83656,-35.75925 120.86756,-36.0581 95.58798,-64.79276 200.96248,-2.93992 245.93668,89.61785 33.4632,91.95786 121.816,116.5188 200.4518,157.10245 83.1331,67.4644 156.8384,150.46809 195.8266,251.64611 58.1299,114.99669 120.2082,233.33701 132.1244,363.54241 45.2023,86.8918 158.7197,-60.6843 110.5928,-124.6712 -17.3692,-74.55095 -110.9035,-148.35717 -74.5315,-226.00574 91.1896,46.82984 123.5051,183.00478 181.6427,270.38454 80.8911,85.1692 1.2817,204.8401 -97.0593,224.9003 -89.8899,17.1347 -158.2242,71.5963 -189.8689,157.1888 -54.068,77.6227 -106.6247,157.0563 -169.2873,227.8607 -61.3544,58.2625 -123.9369,126.9989 -210.1455,142.4574 z m 135.4952,-78.0623 c -3.9812,-5.399 -2.2486,7.8446 0,0 z m 8.6545,-8.5657 c -4.2966,-5.9174 -3.6744,6.8827 0,0 z m 1.101,-26.4397 c -4.4462,-9.1737 0.5421,10.2097 0,0 z m 243.6157,-289.7299 c -6.2432,-2.5106 2.0437,6.9473 0,0 z M 1271,1363.5674 c -7.1631,-11.6712 -4.6744,5.937 0,0 z m 476.5639,-16.203 c 76.4126,-55.7983 216.1764,-61.4598 235.3601,-170.6352 -8.766,-95.2211 -81.6117,-168.6351 -116.8804,-255.0222 -10.6733,-43.98377 -101.86,-155.46282 -71.4214,-49.47033 25.7764,85.93268 121.4135,161.62243 82.7126,258.04453 -23.7207,88.3218 -159.1255,50.1612 -129.1224,159.5103 -0.6461,19.1834 -0.7837,38.3802 -0.6485,57.5729 z M 1059,508.41667 c -3.599,-4.82278 -3.0392,5.8828 0,0 z m 8.393,-11.99846 c 1.9439,-7.71188 -4.7505,5.96723 0,0 z m 23.2187,-2.56203 c 38.7153,-18.84809 177.4592,3.32717 73.5017,-41.40301 -20.1837,-3.75543 -87.283,18.26689 -73.5017,41.40301 z m -15.6488,-7.05763 c 14.8592,-21.88376 -17.7637,15.54182 0,0 z M 1084.5,474.9863 c -4.2032,-9.31569 -3.6923,10.21615 0,0 z M 520.75677,1601.4234 C 358.89305,1602.0072 203.45944,1471.7636 196.17116,1305.9255 178.45408,1186.3804 217.8313,1068.7349 232.93911,951.0352 256.404,834.41795 340.78738,726.83538 458.0002,695.80759 c 89.6618,1.85135 187.62833,23.92665 262.56522,76.848 31.07016,13.66055 67.20687,113.34665 20.24314,42.02237 C 693.71523,732.97859 590.37822,733.50896 509.41362,709.93632 401.35499,702.446 307.74383,798.70863 268.58448,892.00259 235.13511,1003.7354 222.87081,1120.7219 208.0321,1235.9208 c -8.38383,132.4972 58.13882,274.409 186.49525,324.7657 108.08976,45.4278 240.61327,29.3677 331.40204,-46.4168 87.09727,-52.7603 148.60343,-147.5029 166.60924,-247.2008 -14.61969,-113.0553 -137.66838,-8.4873 -140.70525,59.0968 -48.37224,51.0473 -95.4873,171.6129 -175.23955,144.7252 -19.62915,-56.1228 58.73071,-128.5343 48.65473,-160.7453 -44.57831,11.5131 -120.3182,153.519 -95.5327,38.6058 12.81139,-78.5724 76.87462,-130.7861 124.48451,-187.1224 -61.35407,-39.9391 -144.65182,24.8737 -188.21669,33.4928 16.82878,-43.5816 1.60016,-182.5602 -35.21614,-79.2819 -25.34428,62.9552 -120.96286,87.1535 -113.08828,-6.5766 -6.955,-94.5752 5.5692,-203.42129 65.18646,-279.90517 C 446.21444,772.00776 551.0979,722.40545 623.43254,793.72264 606.32914,780.7107 497.20312,752.4511 449.52831,800.42229 348.49696,845.5379 344.21895,964.61478 329.13327,1058.6692 c -0.90197,43.9336 6.93269,154.6401 64.47336,76.1308 26.60572,-26.9819 59.4307,-139.69054 84.87791,-47.8003 2.16369,65.5485 29.73407,89.6564 83.77898,51.9989 48.44297,-14.9954 170.86487,19.5945 75.35862,65.8983 -38.90424,18.9704 -119.39768,174.719 -85.53075,142.0765 13.8561,-50.8156 167.19416,-78.6185 85.75886,-6.0365 -29.43973,28.9174 -68.01588,164.9249 5.16098,91.6343 68.41221,-60.4294 101.00456,-148.2406 157.81404,-217.0823 82.26664,-71.084 138.23228,69.846 87.46068,129.1887 -35.96691,86.1982 -97.39681,162.5315 -182.82288,203.8829 -50.20051,45.5197 -121.23083,46.0347 -184.7063,52.8629 z m 383.082,-330.8067 c -7.06003,-6.0337 -6.30392,9.6124 0,0 z m -1.36978,-7.5665 c -2.25633,-8.1082 -6.3498,3.4095 0,0 z M 1105.5,1333.4799 c 17.572,-44.1966 94.6797,-52.0832 28.9646,-5.6025 l -9.3112,3.2325 z m 26.2708,-14.2924 c -3.4819,-4.8125 -3.1189,5.8013 0,0 z m 27.7164,-25.1668 c 0.3771,-13.1512 -8.9472,5.2246 0,0 z m 191.7659,12.9134 c -81.4823,-3.697 -166.18,-21.7911 -240.6647,-43.0603 -25.3173,-64.2825 27.9402,-170.0685 77.5735,-142.4412 -11.151,-29.1877 -57.1898,-84.1675 -2.6619,-31.4326 -1.992,112.3418 183.674,117.1123 142.149,-6.2377 -4.1846,-56.4623 -16.528,-190.42556 42.7706,-199.8848 33.4452,103.794 41.5225,216.5094 44.3637,325.4232 14.2359,47.8466 4.0386,118.7655 -63.5302,97.6334 z m 15.4725,-13.1268 c 76.8503,-45.0755 11.7855,-173.4505 21.3438,-251.9647 -7.1818,-44.09252 -18.7688,-147.18038 -30.6165,-144.71098 -21.2951,78.87668 -18.3494,162.38668 -11.5331,242.20838 -28.0659,121.3604 -137.0489,-1.9043 -203.0423,1.9774 -69.2587,79.3145 15.8019,151.7878 101.8222,142.2105 40.5181,5.117 81.3414,6.9931 122.0259,10.2794 z M 903.76769,919.84362 c 47.30442,-74.53316 150.33371,-116.88211 238.00741,-111.18498 28.1434,14.55795 -116.0265,-0.52582 -88.2674,67.34136 -45.2255,35.52828 -110.63556,-29.20008 -142.16561,44.25127 l -7.5744,-0.40765 z M 1046,859.41667 c -3.5064,-4.80964 -3.0295,5.87033 0,0 z m 1.9261,-3.82764 c 0.9721,-7.00391 -6.2586,5.86869 0,0 z m 0.5619,-12.55126 c -7.3379,-29.60082 -8.8902,12.33769 0,0 z"
       id="path2993"
       inkscape:connector-curvature="0"
       sodipodi:nodetypes="cccccccccccccccccccccccccccccccccccccccccccccccccccccccccccccccccccccccccccccccccccccccccccccccccccccccccccccccccccccccccccccccccccccccccccccccccccccccccccccccc" />
  </g>
</svg>
